<?xml version="1.0" encoding="iso-8859-1"?>
<!-- Generator: Adobe Illustrator 19.0.0, SVG Export Plug-In . SVG Version: 6.00 Build 0)  -->
<svg version="1.1" id="Layer_1" xmlns="http://www.w3.org/2000/svg" xmlns:xlink="http://www.w3.org/1999/xlink" x="0px" y="0px"
	 viewBox="0 0 511.999 511.999" style="enable-background:new 0 0 511.999 511.999;" xml:space="preserve">
<path style="fill:#FACF23;" d="M388.688,264.847c0-17.695,48.569-13.179,61.932-26.542c8.847-8.847,8.847-26.542-8.847-35.389
	c-17.695-8.847-61.932,17.695-61.932,17.695h-6.471c9.774-18.49,15.318-39.562,15.318-61.932c0-73.294-59.417-132.71-132.71-132.71
	s-132.71,59.417-132.71,132.71c0,22.369,5.543,43.442,15.318,61.932h-6.471c0,0-44.237-26.542-61.932-17.695
	c-17.695,8.847-17.695,26.542-8.847,35.389c13.363,13.363,61.932,8.847,61.932,26.542S96.725,362.168,8.252,379.862
	c0,0,26.542,35.389,70.779,35.389l8.847,26.542c0,0,35.389-17.695,61.932,0c26.542,17.695,61.932,44.237,106.168,44.237
	s79.626-26.542,106.168-44.237c26.542-17.695,61.932,0,61.932,0l8.847-26.542c44.237,0,70.779-35.389,70.779-35.389
	C415.23,362.168,388.688,282.541,388.688,264.847z"/>
<path style="fill:#FFA929;" d="M123.267,158.678c0,22.369,5.543,43.442,15.318,61.932h-6.471c0,0-44.237-26.542-61.932-17.695
	c-17.695,8.847-17.695,26.542-8.847,35.389c13.363,13.363,61.932,8.847,61.932,26.542S96.725,362.168,8.252,379.862
	c0,0,11.13,14.817,30.967,25.277c68.686-32.539,119.438-69.888,119.438-157.987c0-53.084-17.695-70.779,0-132.71
	c9.345-32.708,38.43-62.943,63.798-84.199C165.393,45.095,123.267,96.966,123.267,158.678z"/>
<path d="M511.452,376.903c-1.016-2.661-3.328-4.614-6.121-5.174c-44.633-8.927-71.187-34.429-85.604-54.253
	c-17.017-23.398-22.743-45.939-22.743-52.63c0-0.075,0.007-0.113,0.006-0.114c0.032-0.063,0.885-1.567,6.282-3.421
	c4.927-1.692,11.315-2.917,18.078-4.214c13.508-2.589,27.475-5.266,35.137-12.928c6.405-6.405,9.346-15.678,7.865-24.8
	c-1.643-10.132-8.345-18.61-18.869-23.872c-14.991-7.495-40.678,2.754-56.779,10.82c5.447-15.217,8.279-31.39,8.279-47.639
	c0-16.121-2.701-31.936-8.028-47.006c-1.526-4.32-6.266-6.582-10.584-5.056c-4.32,1.526-6.584,6.266-5.056,10.585
	c4.698,13.29,7.079,27.245,7.079,41.478c0,20.215-4.963,40.291-14.356,58.055c-2.945,5.573,1.301,12.073,7.42,12.171
	c3.365,0.054,7.658,0.614,10.651-1.182c16.266-9.76,44.661-22.033,53.954-17.388c5.708,2.854,9.136,6.896,9.913,11.692
	c0.62,3.817-0.615,7.808-3.222,10.414c-4.06,4.06-16.519,6.448-26.529,8.366c-17.732,3.398-37.831,7.252-37.831,24.04
	c0,20.628,26.114,95.975,107.408,119.656c-10.569,9.451-29.687,22.455-54.877,22.455c-3.571,0-6.741,2.285-7.869,5.671
	l-6.056,18.166c-13.39-4.638-39.581-10.485-61.455,4.097c-2.168,1.444-4.394,2.948-6.678,4.491
	c-25.298,17.088-56.781,38.353-94.89,38.353s-69.592-21.266-94.89-38.353c-2.284-1.543-4.51-3.046-6.678-4.491
	c-21.877-14.584-48.065-8.737-61.455-4.097L86.9,412.629c-1.129-3.387-4.299-5.671-7.869-5.671
	c-25.204,0-44.331-13.018-54.892-22.467c31.269-9.17,58.019-27.16,77.981-52.591c2.829-3.603,2.2-8.817-1.403-11.645
	c-3.601-2.828-8.816-2.201-11.645,1.403c-20.749,26.434-48.488,43.28-82.445,50.072c-5.869,1.174-8.612,8.308-5.009,13.11
	c1.135,1.513,27.193,35.591,71.369,38.508l7.024,21.069c1.567,4.701,7.117,7.003,11.561,4.804
	c0.313-0.155,31.505-15.278,53.638-0.525c2.14,1.427,4.339,2.912,6.593,4.435c25.739,17.385,60.989,41.196,104.175,41.196
	s78.436-23.809,104.175-41.196c2.255-1.523,4.454-3.008,6.593-4.435c22.134-14.755,53.326,0.37,53.621,0.518
	c4.452,2.225,10.009-0.084,11.579-4.795l7.024-21.069c44.176-2.917,70.235-36.996,71.369-38.508
	C512.049,382.561,512.469,379.564,511.452,376.903z"/>
<path d="M90.609,257.099c6.763,1.296,13.152,2.521,18.078,4.214c5.486,1.886,6.276,3.407,6.278,3.411c0,0,0.009,0.036,0.009,0.124
	c0,4.525-2.69,16.707-10.098,31.718c-1.871,3.792-0.509,8.519,3.091,10.734c4.107,2.527,9.654,0.925,11.785-3.393
	c8.718-17.664,11.811-32.081,11.811-39.06c0-16.789-20.099-20.642-37.831-24.04c-10.011-1.919-22.469-4.308-26.529-8.366
	c-2.607-2.607-3.842-6.597-3.222-10.414c0.777-4.795,4.206-8.839,9.913-11.692c9.268-4.635,37.675,7.637,53.955,17.388
	c2.993,1.796,7.287,1.235,10.651,1.182c6.119-0.097,10.365-6.598,7.42-12.171c-9.391-17.764-14.356-37.839-14.356-58.055
	c0-68.604,55.814-124.416,124.416-124.416c42.95,0,82.303,21.708,105.27,58.07c2.446,3.873,7.569,5.03,11.442,2.582
	c3.873-2.446,5.03-7.569,2.583-11.442c-26.027-41.199-70.623-65.798-119.298-65.798c-77.751,0-141.005,63.254-141.005,141.005
	c0,16.248,2.833,32.421,8.279,47.639c-16.104-8.068-41.789-18.315-56.779-10.82c-10.524,5.262-17.225,13.74-18.869,23.872
	c-1.481,9.124,1.46,18.395,7.865,24.8C63.133,251.832,77.101,254.51,90.609,257.099z"/>
<g>
</g>
<g>
</g>
<g>
</g>
<g>
</g>
<g>
</g>
<g>
</g>
<g>
</g>
<g>
</g>
<g>
</g>
<g>
</g>
<g>
</g>
<g>
</g>
<g>
</g>
<g>
</g>
<g>
</g>
</svg>
